<svg xmlns="http://www.w3.org/2000/svg" xmlns:xlink="http://www.w3.org/1999/xlink" width="1400" zoomAndPan="magnify" viewBox="0 0 1050 374.999991" height="500" preserveAspectRatio="xMidYMid meet" version="1.0"><defs><g/><clipPath id="f244de857b"><path d="M 105 109 L 224 109 L 224 256 L 105 256 Z M 105 109 " clip-rule="nonzero"/></clipPath><clipPath id="83c9b4a009"><path d="M 105.519531 152.460938 L 127.503906 121.011719 C 135.238281 109.761719 140.195312 109.308594 152.476562 109.308594 L 179.621094 109.308594 C 182.835938 109.308594 186.277344 109.160156 189.464844 109.617188 C 197.335938 110.746094 202.128906 119.515625 199.835938 126.875 C 198.632812 130.738281 195.167969 136.152344 193.089844 139.878906 C 190.234375 144.996094 187.472656 150.171875 184.683594 155.324219 C 182.746094 158.902344 178.554688 164.121094 183.421875 167.597656 C 186.203125 169.585938 200.335938 168.808594 204.066406 168.808594 C 206.921875 168.804688 210.683594 168.492188 213.402344 169.257812 C 218.078125 170.578125 222.078125 175.109375 222.941406 179.875 C 224.253906 187.097656 220.40625 191.21875 215.941406 195.996094 L 165.464844 250.417969 C 163.847656 252.144531 162.160156 253.832031 160.625 255.628906 C 159.390625 254.328125 157.535156 250.203125 156.578125 248.4375 L 111.1875 163.390625 C 109.253906 159.785156 107.105469 156.242188 105.519531 152.460938 Z M 105.519531 152.460938 " clip-rule="nonzero"/></clipPath><clipPath id="09d72dde21"><path d="M 71 152 L 161 152 L 161 279 L 71 279 Z M 71 152 " clip-rule="nonzero"/></clipPath><clipPath id="906d24b8ba"><path d="M 160.625 255.628906 C 156.699219 260.078125 145.417969 273.117188 141.046875 276.246094 C 131.027344 283.414062 117.054688 275.539062 118.9375 263.191406 C 119.140625 261.871094 119.519531 260.554688 119.835938 259.253906 L 125.453125 236.078125 C 126.019531 233.761719 127.210938 230.601562 126.832031 228.261719 C 125.851562 222.210938 119.1875 223.261719 114.878906 223.261719 L 95.886719 223.265625 C 92.589844 223.265625 88.160156 223.542969 84.988281 222.964844 C 77.976562 221.695312 72.796875 215.480469 71.621094 208.628906 C 70.539062 202.328125 72.910156 197.851562 76.398438 193.070312 L 105.519531 152.460938 C 107.105469 156.242188 109.253906 159.785156 111.1875 163.390625 L 156.578125 248.4375 C 157.535156 250.203125 159.390625 254.328125 160.625 255.628906 Z M 160.625 255.628906 " clip-rule="nonzero"/></clipPath><clipPath id="0dc70a5a9f"><path d="M 104 153 L 164 153 L 164 253 L 104 253 Z M 104 153 " clip-rule="nonzero"/></clipPath><clipPath id="6e534aca4a"><path d="M 102.941406 155.890625 L 109.234375 152.339844 L 164.605469 250.535156 L 158.3125 254.085938 Z M 102.941406 155.890625 " clip-rule="nonzero"/></clipPath><clipPath id="a0bba6eeff"><path d="M 106.089844 154.113281 C 107.828125 153.132812 110.03125 153.75 111.011719 155.488281 L 162.828125 247.382812 C 163.808594 249.121094 163.195312 251.324219 161.457031 252.304688 C 159.71875 253.285156 157.515625 252.671875 156.535156 250.933594 L 104.714844 159.035156 C 103.738281 157.296875 104.351562 155.09375 106.089844 154.113281 Z M 106.089844 154.113281 " clip-rule="nonzero"/></clipPath><clipPath id="1df302a6af"><path d="M 156.898438 247.980469 L 161.304688 247.980469 L 161.304688 255.855469 L 156.898438 255.855469 Z M 156.898438 247.980469 " clip-rule="nonzero"/></clipPath><clipPath id="aa4da21096"><path d="M 161.269531 250.082031 C 159.121094 256.042969 158.152344 255.695312 157.667969 255.28125 C 157.25 254.933594 156.902344 254.035156 156.902344 253.480469 C 156.972656 252.855469 157.527344 252.023438 158.011719 251.746094 C 158.566406 251.46875 159.539062 251.46875 160.023438 251.746094 C 160.578125 252.023438 161.132812 252.785156 161.203125 253.410156 C 161.269531 253.964844 160.925781 254.863281 160.507812 255.28125 C 160.023438 255.695312 159.054688 255.972656 158.5 255.765625 C 157.875 255.488281 156.902344 254.378906 156.902344 253.6875 C 156.902344 252.992188 158.566406 252.023438 158.5 251.609375 C 158.359375 251.261719 157.25 251.332031 157.042969 250.984375 C 156.835938 250.429688 157.390625 248.835938 158.011719 248.351562 C 158.429688 248.003906 159.398438 247.863281 159.953125 248.140625 C 160.507812 248.417969 161.269531 250.082031 161.269531 250.082031 " clip-rule="nonzero"/></clipPath><clipPath id="40d6a83ad7"><path d="M 104.738281 152.109375 L 109.144531 152.109375 L 109.144531 159.988281 L 104.738281 159.988281 Z M 104.738281 152.109375 " clip-rule="nonzero"/></clipPath><clipPath id="5f7cef0b33"><path d="M 109.109375 154.210938 C 106.960938 160.171875 105.992188 159.828125 105.507812 159.410156 C 105.089844 159.0625 104.742188 158.164062 104.742188 157.609375 C 104.8125 156.984375 105.367188 156.152344 105.851562 155.875 C 106.40625 155.597656 107.378906 155.597656 107.863281 155.875 C 108.417969 156.152344 108.972656 156.914062 109.042969 157.539062 C 109.109375 158.09375 108.765625 158.996094 108.347656 159.410156 C 107.863281 159.828125 106.890625 160.101562 106.339844 159.894531 C 105.714844 159.617188 104.742188 158.507812 104.742188 157.816406 C 104.742188 157.125 106.40625 156.152344 106.339844 155.738281 C 106.199219 155.390625 105.089844 155.460938 104.882812 155.113281 C 104.675781 154.558594 105.230469 152.964844 105.851562 152.480469 C 106.269531 152.132812 107.238281 151.996094 107.792969 152.273438 C 108.347656 152.546875 109.109375 154.210938 109.109375 154.210938 " clip-rule="nonzero"/></clipPath></defs><text x="248" y="258" font-family="system-ui,-apple-system,BlinkMacSystemFont,'Segoe UI',Roboto,Ubuntu,sans-serif" font-size="120" font-weight="700" fill="#f2f9ff" letter-spacing="-3">bypassly</text>
<g clip-path="url(#f244de857b)"><g clip-path="url(#83c9b4a009)"><path fill="#f2f9ff" d="M 105.519531 109.160156 L 105.519531 255.628906 L 224.253906 255.628906 L 224.253906 109.160156 Z M 105.519531 109.160156 " fill-opacity="1" fill-rule="nonzero"/></g></g><g clip-path="url(#09d72dde21)"><g clip-path="url(#906d24b8ba)"><path fill="#f2f9ff" d="M 70.539062 152.460938 L 70.539062 283.414062 L 160.625 283.414062 L 160.625 152.460938 Z M 70.539062 152.460938 " fill-opacity="1" fill-rule="nonzero"/></g></g><g clip-path="url(#0dc70a5a9f)"><g clip-path="url(#6e534aca4a)"><g clip-path="url(#a0bba6eeff)"><path fill="#f2f9ff" d="M 102.941406 155.890625 L 109.234375 152.339844 L 164.605469 250.535156 L 158.3125 254.085938 Z M 102.941406 155.890625 " fill-opacity="1" fill-rule="nonzero"/></g></g></g><g clip-path="url(#1df302a6af)"><g clip-path="url(#aa4da21096)"><path fill="#f2f9ff" d="M 154.132812 245.371094 L 164.113281 245.371094 L 164.113281 258.546875 L 154.132812 258.546875 Z M 154.132812 245.371094 " fill-opacity="1" fill-rule="nonzero"/></g></g><g clip-path="url(#40d6a83ad7)"><g clip-path="url(#5f7cef0b33)"><path fill="#f2f9ff" d="M 101.972656 149.5 L 111.953125 149.5 L 111.953125 162.675781 L 101.972656 162.675781 Z M 101.972656 149.5 " fill-opacity="1" fill-rule="nonzero"/></g></g></svg>